# This file uses centimeters as units for non-parametric coordinates.

mtllib FlatParticle.mtl
g default
v -2.360652 0.000000 0.015251
v -1.360652 0.000000 0.015251
v -2.360652 27.023346 0.015251
v -1.360652 27.023346 0.015251
v -1.860652 0.000000 0.015251
v -1.860652 27.023346 0.015251
v -2.360652 13.511674 0.015251
v -1.860652 13.511674 0.030501
v -1.360652 13.511674 0.015251
v -1.860652 13.511674 -0.000000
vt 0.500000 0.649336
vt 0.500000 0.711211
vt 0.023392 0.711211
vt 0.023392 0.649336
vt 0.500000 0.370784
vt 0.500000 0.587460
vt 0.023392 0.587460
vt 0.976608 0.649336
vt 0.976608 0.587460
vt 0.976608 0.711211
vt 0.500000 0.308908
vt 0.023392 0.308908
vt 0.023392 0.370784
vt 0.500000 0.247033
vt 0.023392 0.247033
vt 0.976608 0.370784
vt 0.976608 0.308908
vt 0.976608 0.247033
vn 0.000000 0.000000 1.000000
vn 0.015249 0.000000 0.999884
vn 0.015249 0.000564 0.999884
vn 0.000000 0.000564 1.000000
vn 0.015249 0.000000 -0.999884
vn 0.000000 0.000000 -1.000000
vn 0.000000 0.000564 -1.000000
vn 0.015249 0.000564 -0.999884
vn -0.015249 0.000000 -0.999884
vn -0.015249 0.000564 -0.999884
vn -0.015249 0.000000 0.999884
vn -0.015249 0.000564 0.999884
vn 0.000000 -0.000564 1.000000
vn -0.015249 -0.000564 0.999884
vn 0.015249 -0.000564 0.999884
vn 0.015249 -0.000564 -0.999884
vn 0.000000 -0.000564 -1.000000
vn -0.015249 -0.000564 -0.999884
s 1
g Flat
usemtl initialShadingGroup
f 8/1/1 9/2/2 4/3/3 6/4/4
s 2
f 9/5/5 10/11/6 6/12/7 4/13/8
f 6/12/7 10/11/6 7/14/9 3/15/10
s 1
f 7/6/11 8/1/1 6/4/4 3/7/12
f 5/8/13 8/1/1 7/6/11 1/9/14
f 2/10/15 9/2/2 8/1/1 5/8/13
s 2
f 2/16/16 5/17/17 10/11/6 9/5/5
f 7/14/9 10/11/6 5/17/17 1/18/18
