# This file uses centimeters as units for non-parametric coordinates.

mtllib NightfestPanel.mtl
g default
v 0.000000 -746.321350 995.789001
v 0.000000 -248.773788 995.789001
v 0.000000 248.773834 995.789001
v 0.000000 746.321350 995.789001
v 89.179657 -746.321350 331.929688
v 110.223373 -248.773788 331.929688
v 110.223373 248.773834 331.929688
v 89.179657 746.321350 331.929688
v 89.179657 -746.321350 -331.929749
v 110.223373 -248.773788 -331.929749
v 110.223373 248.773834 -331.929749
v 89.179657 746.321350 -331.929749
v -0.000000 -746.321350 -995.789001
v -0.000000 -248.773788 -995.789001
v -0.000000 248.773834 -995.789001
v 0.000000 746.321350 -995.789001
vt 0.009357 0.132274
vt 0.009357 0.377425
vt 0.336452 0.377425
vt 0.336452 0.132274
vt 0.009357 0.622575
vt 0.336452 0.622575
vt 0.009357 0.867726
vt 0.336452 0.867726
vt 0.663548 0.377425
vt 0.663548 0.132274
vt 0.663548 0.622575
vt 0.663548 0.867726
vt 0.990643 0.377425
vt 0.990643 0.132274
vt 0.990643 0.622575
vt 0.990643 0.867726
vn -0.988693 0.020908 -0.148487
vn -0.987676 0.010443 -0.156161
vn -0.996771 0.015804 -0.078721
vn -0.996685 0.031597 -0.074977
vn -0.987677 -0.010443 -0.156161
vn -0.996771 -0.015804 -0.078721
vn -0.988693 -0.020908 -0.148487
vn -0.996685 -0.031597 -0.074977
vn -0.996771 0.015804 0.078721
vn -0.996685 0.031597 0.074977
vn -0.996771 -0.015804 0.078721
vn -0.996685 -0.031597 0.074977
vn -0.987676 0.010443 0.156161
vn -0.988693 0.020908 0.148487
vn -0.987676 -0.010443 0.156161
vn -0.988693 -0.020908 0.148487
s 1
g pPlane1
usemtl initialShadingGroup
f 1/1/1 2/2/2 6/3/3 5/4/4
f 2/2/2 3/5/5 7/6/6 6/3/3
f 3/5/5 4/7/7 8/8/8 7/6/6
f 5/4/4 6/3/3 10/9/9 9/10/10
f 6/3/3 7/6/6 11/11/11 10/9/9
f 7/6/6 8/8/8 12/12/12 11/11/11
f 9/10/10 10/9/9 14/13/13 13/14/14
f 10/9/9 11/11/11 15/15/15 14/13/13
f 11/11/11 12/12/12 16/16/16 15/15/15
